<?xml version="1.0" standalone="no"?>
<!DOCTYPE svg PUBLIC "-//W3C//DTD SVG 20010904//EN"
 "http://www.w3.org/TR/2001/REC-SVG-20010904/DTD/svg10.dtd">
<svg version="1.0" xmlns="http://www.w3.org/2000/svg"
 width="1024.000000pt" height="1024.000000pt" viewBox="0 0 1024.000000 1024.000000"
 preserveAspectRatio="xMidYMid meet">

<g transform="translate(0.000000,1024.000000) scale(0.100000,-0.100000)"
fill="#000000" stroke="none">
<path d="M4806 6924 c-256 -34 -475 -128 -704 -302 -119 -89 -175 -122 -272
-157 -117 -42 -207 -55 -371 -55 l-149 0 0 -60 0 -60 144 0 c299 0 469 56 703
232 77 57 164 111 248 153 229 113 387 145 729 145 l216 0 122 60 123 60 -345
-1 c-228 -1 -379 -6 -444 -15z"/>
<path d="M5920 6909 c-364 -36 -705 -282 -840 -606 -71 -170 -73 -189 -78
-607 l-4 -379 48 41 c25 23 63 47 83 54 27 9 236 13 844 16 l807 3 0 59 0 60
-570 0 -570 0 0 199 c0 170 3 208 20 262 39 125 137 228 268 281 56 22 67 23
455 26 l397 3 -2 297 -3 297 -385 1 c-212 1 -423 -2 -470 -7z"/>
<path d="M4887 6649 c-180 -26 -385 -98 -519 -182 -45 -29 -132 -90 -193 -136
-131 -100 -271 -171 -410 -207 -84 -22 -129 -27 -277 -31 l-178 -5 0 -59 0
-59 123 0 c206 0 366 28 516 89 95 40 164 82 316 195 145 109 262 172 408 221
108 36 264 65 353 65 53 0 52 -1 133 93 l24 27 -119 -1 c-65 -1 -145 -5 -177
-10z"/>
<path d="M4850 6330 c-206 -44 -386 -130 -590 -280 -267 -198 -456 -260 -787
-260 l-163 0 0 -60 0 -60 163 0 c193 0 311 17 457 66 139 47 231 97 391 215
190 140 370 226 548 262 l64 13 18 49 c30 86 34 84 -101 55z"/>
<path d="M4775 6021 c-182 -64 -299 -130 -492 -277 -254 -193 -443 -254 -788
-254 l-186 0 3 -62 3 -62 180 2 c377 6 571 70 853 281 188 142 270 188 452
255 l85 31 3 58 c4 68 3 69 -113 28z"/>
<path d="M4770 5702 c-135 -61 -247 -129 -387 -235 -137 -104 -220 -153 -339
-200 -156 -61 -259 -78 -511 -84 l-223 -5 0 -59 0 -59 188 0 c264 0 413 25
597 99 119 48 202 98 365 220 124 93 366 231 404 231 8 0 16 17 20 46 8 62 8
94 -1 94 -5 -1 -55 -22 -113 -48z"/>
<path d="M4754 5362 c-128 -68 -142 -76 -289 -191 -304 -237 -532 -310 -967
-311 l-188 0 0 -61 0 -62 248 6 c198 4 266 10 344 26 239 52 428 145 633 311
86 71 187 136 283 184 l72 36 0 60 c0 41 -4 60 -12 60 -7 0 -63 -27 -124 -58z"/>
<path d="M5192 5289 c-62 -12 -141 -58 -168 -99 -16 -23 -24 -49 -24 -76 l0
-42 32 30 c84 78 82 78 975 78 l773 0 0 60 0 60 -772 -1 c-425 -1 -792 -5
-816 -10z"/>
<path d="M4804 5068 c-70 -42 -188 -129 -323 -237 -158 -127 -358 -214 -578
-251 -92 -16 -162 -20 -354 -20 l-239 0 0 -61 0 -61 288 5 c311 5 379 14 547
72 169 58 280 124 472 278 73 58 164 126 203 151 l70 46 0 60 c0 33 -4 60 -8
60 -5 0 -39 -19 -78 -42z"/>
<path d="M5168 5036 c-59 -16 -122 -59 -148 -101 -20 -32 -20 -50 -20 -879 l0
-846 320 0 320 0 0 855 0 855 570 0 570 0 0 60 0 60 -182 1 c-101 0 -453 2
-783 4 -452 2 -612 0 -647 -9z"/>
<path d="M4741 4683 c-220 -178 -281 -220 -406 -283 -228 -113 -385 -143 -757
-144 l-268 -1 0 -64 0 -64 283 6 c299 5 383 15 552 63 110 31 222 81 340 152
86 51 145 95 324 245 l81 69 0 64 c0 35 -4 64 -8 64 -5 0 -68 -48 -141 -107z"/>
<path d="M4745 4349 c-392 -331 -623 -409 -1217 -409 l-218 0 0 -60 0 -60 243
0 c330 0 488 19 666 77 215 70 352 152 584 352 l87 75 0 68 c0 37 -3 68 -7 68
-5 -1 -66 -50 -138 -111z"/>
<path d="M4780 4029 c-258 -223 -423 -309 -710 -371 -81 -17 -143 -21 -427
-25 l-333 -5 0 -59 0 -59 301 0 c221 0 329 4 406 16 304 45 574 175 811 391
53 48 53 48 59 121 4 45 2 72 -4 72 -6 0 -52 -36 -103 -81z"/>
<path d="M4805 3718 c-237 -205 -447 -310 -732 -364 -67 -13 -169 -18 -425
-21 l-338 -5 0 -59 0 -59 293 0 c385 0 513 15 724 85 177 59 305 132 475 269
l88 71 0 73 c0 39 -3 72 -7 71 -5 0 -39 -27 -78 -61z"/>
<path d="M4799 3360 c-46 -38 -87 -70 -91 -70 -18 0 -6 -40 18 -59 21 -17 41
-21 95 -21 l69 0 0 110 c0 61 -2 110 -4 110 -2 0 -41 -31 -87 -70z"/>
</g>
</svg>
